<svg xmlns="http://www.w3.org/2000/svg" viewBox="0 0 1000 600" width="100%" height="100%">
  <rect width="1000" height="600" rx="16" fill="#FFFFFF" stroke="#CBD5E1" stroke-width="2" />
  <text x="500" y="45" font-family="sans-serif" font-size="22" font-weight="900" fill="#0F172A" text-anchor="middle">R-LiFi OPTICAL TRANSMISSION ARCHITECTURE</text>

  <!-- Ethernet / PC Input -->
  <g transform="translate(80, 140)">
    <rect width="180" height="120" rx="12" fill="#1E293B" />
    <rect x="20" y="20" width="140" height="60" rx="6" fill="#38BDF8" opacity="0.3" />
    <text x="90" y="55" font-family="sans-serif" font-weight="bold" font-size="14" fill="#FFFFFF" text-anchor="middle">Data Source / PC</text>
    <text x="90" y="105" font-family="sans-serif" font-weight="bold" font-size="12" fill="#94A3B8" text-anchor="middle">Ethernet / RS485 / USB</text>
  </g>

  <!-- Arrow to Transmitter -->
  <path d="M 260 200 L 360 200" stroke="#0284C7" stroke-width="4" stroke-dasharray="6,6" />

  <!-- LiFi Transmitter Unit -->
  <g transform="translate(360, 140)">
    <rect width="200" height="120" rx="12" fill="#0284C7" />
    <text x="100" y="50" font-family="sans-serif" font-weight="bold" font-size="16" fill="#FFFFFF" text-anchor="middle">LiFi Transmitter</text>
    <text x="100" y="75" font-family="sans-serif" font-size="12" fill="#E0F2FE" text-anchor="middle">LED Modulator Driver</text>
    <circle cx="100" cy="100" r="10" fill="#38BDF8" />
  </g>

  <!-- Optical Beam Spectrum -->
  <polygon points="560,200 740,120 740,280" fill="#38BDF8" opacity="0.25" />
  <line x1="560" y1="200" x2="740" y2="200" stroke="#0284C7" stroke-width="4" stroke-dasharray="4,4" />

  <!-- LiFi Receiver Unit -->
  <g transform="translate(740, 140)">
    <rect width="180" height="120" rx="12" fill="#0369A1" />
    <text x="90" y="50" font-family="sans-serif" font-weight="bold" font-size="16" fill="#FFFFFF" text-anchor="middle">LiFi Receiver</text>
    <text x="90" y="75" font-family="sans-serif" font-size="12" fill="#E0F2FE" text-anchor="middle">Photodiode Demodulator</text>
  </g>

  <!-- Output Device Block -->
  <g transform="translate(740, 380)">
    <rect width="180" height="120" rx="12" fill="#0F172A" />
    <text x="90" y="55" font-family="sans-serif" font-weight="bold" font-size="14" fill="#FFFFFF" text-anchor="middle">Secure Destination</text>
    <text x="90" y="80" font-family="sans-serif" font-size="12" fill="#38BDF8" text-anchor="middle">Audio / Data Output</text>
  </g>

  <line x1="830" y1="260" x2="830" y2="380" stroke="#0284C7" stroke-width="4" />
</svg>