<svg xmlns="http://www.w3.org/2000/svg" xmlns:xlink="http://www.w3.org/1999/xlink" width="200" zoomAndPan="magnify" viewBox="0 0 150 149.999998" height="200" preserveAspectRatio="xMidYMid meet" version="1.0"><defs><clipPath id="13eb78ccf3"><path d="M 18 117 L 37 117 L 37 140.28125 L 18 140.28125 Z M 18 117 " clip-rule="nonzero"/></clipPath><clipPath id="012fe2de6d"><path d="M 118 117 L 134 117 L 134 140.28125 L 118 140.28125 Z M 118 117 " clip-rule="nonzero"/></clipPath><clipPath id="f394e7e6dd"><path d="M 54 9.78125 L 63 9.78125 L 63 19 L 54 19 Z M 54 9.78125 " clip-rule="nonzero"/></clipPath></defs><path fill="#373f54" d="M 39.898438 118.3125 L 46.976562 118.3125 C 48.199219 121.4375 48.246094 124.839844 49.875 127.933594 C 50.609375 124.808594 51.339844 121.683594 52.105469 118.441406 C 54.578125 118.050781 57.019531 118.28125 59.527344 118.3125 C 60.503906 125.394531 61.449219 132.230469 62.394531 139.066406 C 62.636719 139.066406 62.898438 139.082031 63.140625 139.097656 C 64.054688 132.246094 64.949219 125.378906 65.859375 118.441406 C 68.1875 118.019531 70.464844 118.28125 72.828125 118.28125 C 74.277344 121.453125 74.128906 125.050781 75.625 128.730469 C 76.503906 124.988281 77.269531 121.746094 78.070312 118.394531 L 85.476562 118.394531 C 86.417969 125.359375 87.363281 132.3125 88.324219 139.457031 L 82.675781 139.457031 C 82.203125 135.191406 81.730469 130.960938 81.257812 126.746094 C 81.113281 126.710938 80.964844 126.679688 80.804688 126.648438 C 79.746094 130.863281 78.6875 135.078125 77.613281 139.375 C 76.390625 139.765625 75.136719 139.605469 73.738281 139.472656 C 72.617188 135.160156 71.507812 130.863281 70.386719 126.582031 C 70.238281 126.582031 70.074219 126.597656 69.929688 126.613281 C 69.472656 130.8125 69.035156 135.015625 68.546875 139.507812 C 64.753906 139.75 60.929688 139.292969 56.921875 139.71875 C 55.980469 135.46875 56.078125 131.222656 55.3125 127.136719 C 55.117188 127.136719 54.921875 127.117188 54.710938 127.101562 C 53.714844 131.15625 52.707031 135.210938 51.714844 139.230469 C 50.527344 139.945312 49.304688 139.375 47.988281 139.703125 C 46.457031 135.519531 45.871094 131.1875 44.242188 127.039062 C 43.378906 128.992188 43.671875 131.15625 43.25 133.175781 C 42.828125 135.210938 43.203125 137.359375 42.421875 139.457031 C 40.757812 139.703125 39.117188 139.621094 37.195312 139.507812 C 38.105469 132.375 38.984375 125.410156 39.898438 118.328125 Z M 39.898438 118.3125 " fill-opacity="1" fill-rule="nonzero"/><g clip-path="url(#13eb78ccf3)"><path fill="#373f54" d="M 36.753906 128.730469 C 36.640625 129.835938 36.59375 130.929688 36.429688 132.019531 C 35.695312 137 32.394531 140.027344 27.625 140.109375 C 22.691406 140.191406 19.257812 137.195312 18.441406 132.117188 C 18.070312 129.835938 18.035156 127.558594 18.441406 125.28125 C 19.273438 120.65625 22.445312 117.824219 27.054688 117.679688 C 31.789062 117.53125 35.355469 120.265625 36.316406 124.890625 C 36.578125 126.140625 36.609375 127.460938 36.753906 128.746094 Z M 25.71875 123.082031 C 23.097656 127.605469 23.878906 133.742188 27.152344 135.242188 C 28.925781 135.160156 29.902344 134.117188 30.226562 132.507812 C 30.699219 130.148438 30.765625 127.753906 30.246094 125.410156 C 29.707031 122.96875 28.566406 122.429688 25.71875 123.082031 Z M 25.71875 123.082031 " fill-opacity="1" fill-rule="nonzero"/></g><path fill="#373f54" d="M 118.992188 125.261719 C 117.996094 126.988281 117.394531 129.007812 115.261719 129.96875 C 116.761719 133.15625 118.175781 136.1875 119.691406 139.425781 L 113.734375 139.425781 C 112.496094 136.933594 111.195312 134.3125 109.613281 131.171875 C 108.394531 134.230469 109.386719 136.902344 108.785156 139.472656 C 107.011719 139.621094 105.234375 139.683594 103.398438 139.441406 L 103.398438 118.265625 C 105.855469 118.265625 108.230469 118.132812 110.574219 118.296875 C 115.980469 118.65625 117.738281 120.21875 118.894531 125.359375 Z M 112.039062 123.230469 C 111.144531 122.789062 110.21875 122.054688 108.964844 122.707031 C 109.011719 124.320312 108.734375 125.785156 109.144531 127.234375 C 110.363281 127.347656 111.390625 127.183594 112.25 126.386719 C 112.902344 125.34375 112.757812 124.351562 112.039062 123.230469 Z M 112.039062 123.230469 " fill-opacity="1" fill-rule="nonzero"/><path fill="#373f54" d="M 100.757812 127.117188 C 100.875 128.4375 100.972656 129.707031 100.695312 130.960938 C 99.097656 131.464844 97.601562 131.027344 96.007812 131.300781 C 95.4375 132.34375 95.777344 133.5 95.777344 134.949219 L 101.425781 134.949219 C 101.785156 136.59375 101.636719 137.945312 101.589844 139.457031 L 90.097656 139.457031 L 90.097656 118.441406 L 101.460938 118.441406 C 101.734375 119.925781 101.636719 121.273438 101.558594 122.804688 L 96.007812 122.804688 C 95.5 124.089844 95.761719 125.230469 95.730469 126.402344 C 97.390625 127.214844 99.214844 126.191406 100.742188 127.136719 Z M 100.757812 127.117188 " fill-opacity="1" fill-rule="nonzero"/><path fill="#373f54" d="M 135.269531 118.34375 L 146.371094 118.34375 L 146.371094 122.644531 C 144.644531 123.179688 142.738281 122.59375 140.753906 123 C 140.558594 124.15625 140.558594 125.28125 140.753906 126.417969 C 142.316406 126.972656 143.847656 126.417969 145.425781 126.84375 C 146.109375 128.078125 145.6875 129.429688 145.703125 130.894531 C 144.109375 131.496094 142.480469 130.929688 140.851562 131.300781 C 140.347656 132.425781 140.785156 133.566406 140.558594 134.898438 L 146.257812 134.898438 C 146.859375 136.496094 146.417969 137.925781 146.597656 139.457031 L 135.351562 139.457031 C 134.84375 137.226562 134.765625 121.339844 135.285156 118.328125 Z M 135.269531 118.34375 " fill-opacity="1" fill-rule="nonzero"/><path fill="#373f54" d="M 16.894531 139.390625 C 11.914062 140.875 7.4375 139.472656 4.6875 135.761719 C 2.003906 132.148438 1.808594 126.238281 4.214844 122.527344 C 6.773438 118.589844 11.117188 117.058594 16.621094 118.183594 C 17.140625 118.851562 16.847656 119.664062 16.878906 120.429688 C 16.914062 121.210938 17.042969 122.023438 16.683594 122.773438 C 10.546875 122.953125 8.53125 124.597656 8.726562 129.25 C 8.902344 133.546875 11.019531 135.078125 16.375 134.785156 C 17.285156 135.273438 16.816406 136.167969 16.878906 136.886719 C 16.960938 137.667969 16.894531 138.464844 16.894531 139.390625 Z M 16.894531 139.390625 " fill-opacity="1" fill-rule="nonzero"/><g clip-path="url(#012fe2de6d)"><path fill="#373f54" d="M 118.910156 125.359375 C 119.070312 125.296875 119.347656 125.28125 119.414062 125.148438 C 122.492188 118.832031 126.332031 116.847656 133.183594 118.183594 C 133.527344 119.679688 133.347656 121.226562 133.316406 122.96875 C 130.988281 122.9375 128.609375 122.203125 126.804688 124.1875 C 125.597656 125.507812 125.0625 127.039062 125.046875 128.796875 C 125.011719 133.222656 127.164062 134.851562 133.234375 134.898438 L 133.234375 139.277344 C 126.65625 141.816406 119.640625 137.421875 119.054688 130.308594 C 118.910156 128.632812 119.023438 126.957031 119.007812 125.261719 Z M 118.910156 125.359375 " fill-opacity="1" fill-rule="nonzero"/></g><path fill="#10b981" d="M 33.484375 38.046875 C 27.394531 38.046875 22.445312 42.996094 22.445312 49.082031 L 22.445312 93.992188 L 70.191406 93.992188 L 91.058594 106.234375 L 89.429688 93.992188 L 129.667969 93.992188 C 135.789062 93.992188 140.753906 89.027344 140.753906 82.910156 L 140.753906 38.046875 Z M 33.484375 38.046875 " fill-opacity="1" fill-rule="nonzero"/><path fill="#373f54" d="M 143.34375 38.746094 L 143.34375 37.460938 C 143.308594 31.355469 140.152344 26.75 133.949219 23.769531 C 131.050781 22.371094 128.121094 22.371094 125.519531 22.371094 L 18.199219 22.371094 C 18.199219 22.371094 17.285156 22.371094 17.285156 22.371094 C 16.636719 22.371094 15.96875 22.371094 15.300781 22.421875 C 6.640625 22.988281 0.277344 29.386719 0.164062 37.625 C -0.0507812 51.785156 -0.0507812 66.628906 0.164062 81.753906 C 0.277344 89.289062 5.273438 95.019531 13.234375 96.710938 C 15.917969 97.28125 18.425781 97.347656 20.316406 97.332031 L 35.191406 97.332031 C 46.230469 97.332031 55.425781 97.332031 64.949219 97.28125 L 65.046875 97.28125 C 67.503906 97.28125 69.457031 97.800781 71.378906 98.957031 C 76.375 101.96875 81.566406 104.738281 86.613281 107.421875 L 87.492188 107.894531 C 87.492188 107.894531 87.574219 107.960938 87.625 107.992188 L 87.738281 108.074219 C 88.273438 108.464844 89.542969 109.390625 91.222656 109.390625 C 92.375 109.390625 93.484375 108.953125 94.476562 108.089844 L 96.054688 106.722656 L 95.46875 104.722656 C 94.980469 103.042969 94.296875 101.53125 93.628906 100.050781 C 93.207031 99.121094 92.800781 98.210938 92.472656 97.332031 C 92.539062 97.332031 92.605469 97.332031 92.667969 97.332031 C 92.929688 97.332031 93.175781 97.332031 93.433594 97.347656 L 93.921875 97.347656 C 103.917969 97.332031 113.699219 97.3125 123.46875 97.363281 C 126.1875 97.363281 128.757812 97.085938 131.085938 96.582031 C 138.296875 95.019531 143.195312 89.191406 143.277344 82.09375 C 143.441406 67.558594 143.375 52.910156 143.324219 38.746094 Z M 87.25 91.566406 L 84.96875 92.480469 L 85.230469 94.921875 C 85.425781 96.808594 85.945312 98.46875 86.566406 100.050781 C 82.722656 97.996094 78.605469 95.75 74.730469 93.40625 C 71.785156 91.632812 68.707031 90.804688 65.03125 90.804688 L 64.914062 90.804688 C 54.988281 90.851562 45.1875 90.851562 35.191406 90.851562 L 20.296875 90.851562 C 18.070312 90.867188 16.195312 90.722656 14.585938 90.378906 C 9.683594 89.339844 6.722656 86.082031 6.65625 81.671875 C 6.445312 66.613281 6.445312 51.835938 6.65625 37.722656 C 6.722656 32.871094 10.464844 29.242188 15.742188 28.898438 C 16.328125 28.867188 16.945312 28.867188 17.546875 28.867188 L 125.5 28.867188 C 127.570312 28.867188 129.523438 28.851562 131.148438 29.632812 C 135.074219 31.519531 136.847656 33.945312 136.847656 37.492188 L 136.847656 38.761719 C 136.914062 52.910156 136.976562 67.542969 136.816406 82.011719 C 136.765625 86.015625 133.917969 89.320312 129.734375 90.234375 C 127.8125 90.65625 125.777344 90.851562 123.515625 90.867188 C 113.652344 90.804688 103.886719 90.835938 93.890625 90.867188 C 93.664062 90.867188 93.386719 90.867188 93.09375 90.867188 L 92.898438 90.867188 C 91.335938 90.804688 89.398438 90.738281 87.265625 91.601562 Z M 87.25 91.566406 " fill-opacity="1" fill-rule="nonzero"/><path fill="#ffffff" d="M 69.132812 46.640625 C 70.855469 42.214844 68.839844 40.015625 63.386719 40.765625 C 58.113281 48.414062 57.820312 57.824219 55.898438 67.117188 C 52.609375 60.902344 53.179688 54 49.941406 48.773438 C 46.261719 47.554688 44.84375 49.636719 43.691406 51.800781 C 41.183594 56.441406 38.824219 61.160156 36.382812 65.847656 C 35.664062 67.199219 35.160156 68.730469 33.695312 69.738281 C 31.496094 61.761719 30.441406 53.835938 29.023438 45.992188 C 28.582031 43.546875 27.492188 42.035156 24.890625 42.199219 C 22.609375 42.328125 20.804688 44.492188 21.226562 47.046875 C 23.164062 58.929688 24.90625 70.863281 28.859375 82.304688 C 29.363281 83.753906 30.015625 85.089844 31.578125 85.660156 C 32.394531 85.820312 33.222656 85.839844 33.808594 85.351562 C 40.027344 80.140625 41.394531 71.871094 46.390625 64.96875 C 47.089844 66.972656 47.515625 68.257812 48.003906 69.511719 C 49.957031 74.605469 52.398438 79.425781 56.0625 83.558594 C 57.851562 85.59375 59.753906 86.621094 62.246094 85.15625 C 63.90625 83.398438 63.371094 81.347656 63.433594 79.441406 C 63.808594 68.257812 65.046875 57.222656 69.164062 46.691406 Z M 69.132812 46.640625 " fill-opacity="1" fill-rule="nonzero"/><path fill="#ffffff" d="M 87.753906 46.070312 C 83.472656 44.738281 79.371094 45.324219 75.886719 48.414062 C 69.605469 53.984375 67.097656 66.355469 70.695312 73.9375 C 74.617188 82.226562 85.050781 83.429688 90.75 76.167969 C 94.296875 71.644531 96.234375 66.5 96.136719 60.671875 C 96.070312 59.320312 96.1875 57.921875 95.910156 56.621094 C 94.867188 51.851562 92.816406 47.683594 87.753906 46.089844 Z M 80.882812 72.71875 C 76.945312 70.03125 75.886719 65.574219 77.839844 60.070312 C 79.648438 54.992188 81.46875 53.558594 85.605469 53.933594 C 90.636719 60.542969 88.210938 70.210938 80.882812 72.71875 Z M 80.882812 72.71875 " fill-opacity="1" fill-rule="nonzero"/><path fill="#ffffff" d="M 104.632812 49.410156 C 100.484375 53.949219 98.742188 59.484375 98.871094 65.589844 C 98.871094 66.792969 98.742188 68.015625 98.886719 69.203125 C 99.667969 75.046875 103.25 79.292969 108.441406 80.613281 C 113.113281 81.800781 118.078125 79.847656 121.300781 75.046875 C 125.597656 68.617188 127.226562 61.519531 124.882812 53.949219 C 122.066406 44.851562 111.0625 42.375 104.617188 49.410156 Z M 110.933594 72.75 C 106.976562 70.601562 105.609375 66.125 107.238281 60.671875 C 108.71875 55.722656 111.128906 53.640625 115.394531 53.867188 C 119.984375 61.195312 117.949219 69.382812 110.933594 72.75 Z M 110.933594 72.75 " fill-opacity="1" fill-rule="nonzero"/><path fill="#373f54" d="M 67.277344 44.933594 C 69 40.503906 66.984375 38.308594 61.53125 39.054688 C 56.257812 46.707031 55.964844 56.113281 54.042969 65.410156 C 50.753906 59.191406 51.324219 52.289062 48.085938 47.066406 C 44.40625 45.84375 42.988281 47.925781 41.832031 50.09375 C 39.328125 54.730469 36.96875 59.453125 34.523438 64.140625 C 33.808594 65.492188 33.304688 67.019531 31.839844 68.03125 C 29.640625 60.054688 28.582031 52.128906 27.167969 44.28125 C 26.726562 41.839844 25.636719 40.324219 23.03125 40.488281 C 20.753906 40.617188 18.949219 42.785156 19.371094 45.339844 C 21.308594 57.222656 23.050781 69.152344 27.003906 80.597656 C 27.507812 82.046875 28.160156 83.378906 29.722656 83.949219 C 30.539062 84.113281 31.367188 84.128906 31.953125 83.640625 C 38.171875 78.433594 39.539062 70.164062 44.535156 63.261719 C 45.234375 65.261719 45.660156 66.550781 46.148438 67.800781 C 48.101562 72.898438 50.542969 77.714844 54.207031 81.851562 C 55.996094 83.886719 57.898438 84.910156 60.390625 83.445312 C 62.050781 81.6875 61.515625 79.636719 61.578125 77.730469 C 61.953125 66.550781 63.191406 55.511719 67.308594 44.980469 Z M 67.277344 44.933594 " fill-opacity="1" fill-rule="nonzero"/><path fill="#373f54" d="M 85.898438 44.363281 C 81.617188 43.027344 77.515625 43.613281 74.03125 46.707031 C 67.75 52.273438 65.242188 64.644531 68.839844 72.230469 C 72.761719 80.515625 83.195312 81.71875 88.894531 74.460938 C 92.441406 69.933594 94.378906 64.792969 94.28125 58.964844 C 94.214844 57.613281 94.328125 56.210938 94.054688 54.910156 C 93.011719 50.140625 90.960938 45.972656 85.898438 44.378906 Z M 79.027344 71.007812 C 75.089844 68.324219 74.03125 63.863281 75.984375 58.363281 C 77.792969 53.28125 79.613281 51.851562 83.75 52.226562 C 88.777344 58.832031 86.355469 68.503906 79.027344 71.007812 Z M 79.027344 71.007812 " fill-opacity="1" fill-rule="nonzero"/><path fill="#373f54" d="M 102.777344 47.699219 C 98.628906 52.242188 96.886719 57.777344 97.015625 63.878906 C 97.015625 65.085938 96.886719 66.304688 97.03125 67.492188 C 97.8125 73.335938 101.394531 77.585938 106.585938 78.902344 C 111.257812 80.09375 116.222656 78.140625 119.445312 73.335938 C 123.742188 66.90625 125.371094 59.808594 123.027344 52.242188 C 120.210938 43.140625 109.207031 40.667969 102.761719 47.699219 Z M 109.078125 71.042969 C 105.121094 68.894531 103.753906 64.417969 105.382812 58.964844 C 106.863281 54.015625 109.273438 51.933594 113.539062 52.160156 C 118.128906 59.484375 116.09375 67.671875 109.078125 71.042969 Z M 109.078125 71.042969 " fill-opacity="1" fill-rule="nonzero"/><path fill="#10b981" d="M 147.003906 107.015625 C 147.003906 107.308594 146.976562 107.601562 146.917969 107.890625 C 146.863281 108.175781 146.777344 108.457031 146.664062 108.730469 C 146.550781 109 146.414062 109.257812 146.25 109.503906 C 146.085938 109.746094 145.902344 109.972656 145.695312 110.179688 C 145.484375 110.390625 145.261719 110.574219 145.015625 110.738281 C 144.769531 110.902344 144.511719 111.039062 144.242188 111.152344 C 143.96875 111.265625 143.691406 111.347656 143.402344 111.40625 C 143.113281 111.464844 142.824219 111.492188 142.527344 111.492188 C 142.234375 111.492188 141.945312 111.464844 141.65625 111.40625 C 141.367188 111.347656 141.085938 111.265625 140.816406 111.152344 C 140.542969 111.039062 140.285156 110.902344 140.042969 110.738281 C 139.796875 110.574219 139.570312 110.390625 139.363281 110.179688 C 139.15625 109.972656 138.96875 109.746094 138.804688 109.503906 C 138.644531 109.257812 138.503906 109 138.394531 108.730469 C 138.28125 108.457031 138.195312 108.175781 138.136719 107.890625 C 138.082031 107.601562 138.050781 107.308594 138.050781 107.015625 C 138.050781 106.722656 138.082031 106.429688 138.136719 106.144531 C 138.195312 105.855469 138.28125 105.574219 138.394531 105.304688 C 138.503906 105.03125 138.644531 104.773438 138.804688 104.527344 C 138.96875 104.285156 139.15625 104.058594 139.363281 103.851562 C 139.570312 103.644531 139.796875 103.457031 140.042969 103.292969 C 140.285156 103.128906 140.542969 102.992188 140.816406 102.878906 C 141.085938 102.769531 141.367188 102.683594 141.65625 102.625 C 141.945312 102.566406 142.234375 102.539062 142.527344 102.539062 C 142.824219 102.539062 143.113281 102.566406 143.402344 102.625 C 143.691406 102.683594 143.96875 102.769531 144.242188 102.878906 C 144.511719 102.992188 144.769531 103.128906 145.015625 103.292969 C 145.261719 103.457031 145.484375 103.644531 145.695312 103.851562 C 145.902344 104.058594 146.085938 104.285156 146.25 104.527344 C 146.414062 104.773438 146.550781 105.03125 146.664062 105.304688 C 146.777344 105.574219 146.863281 105.855469 146.917969 106.144531 C 146.976562 106.429688 147.003906 106.722656 147.003906 107.015625 Z M 147.003906 107.015625 " fill-opacity="1" fill-rule="nonzero"/><path fill="#10b981" d="M 150 97.640625 C 150 97.988281 149.933594 98.324219 149.800781 98.648438 C 149.664062 98.972656 149.476562 99.257812 149.226562 99.503906 C 148.980469 99.75 148.695312 99.941406 148.371094 100.074219 C 148.050781 100.210938 147.710938 100.277344 147.363281 100.277344 C 147.011719 100.277344 146.675781 100.210938 146.355469 100.074219 C 146.03125 99.941406 145.746094 99.75 145.5 99.503906 C 145.25 99.257812 145.058594 98.972656 144.925781 98.648438 C 144.792969 98.324219 144.726562 97.988281 144.726562 97.640625 C 144.726562 97.289062 144.792969 96.953125 144.925781 96.628906 C 145.058594 96.308594 145.25 96.023438 145.5 95.773438 C 145.746094 95.527344 146.03125 95.335938 146.355469 95.203125 C 146.675781 95.070312 147.011719 95.003906 147.363281 95.003906 C 147.710938 95.003906 148.050781 95.070312 148.371094 95.203125 C 148.695312 95.335938 148.980469 95.527344 149.226562 95.773438 C 149.476562 96.023438 149.664062 96.308594 149.800781 96.628906 C 149.933594 96.953125 150 97.289062 150 97.640625 Z M 150 97.640625 " fill-opacity="1" fill-rule="nonzero"/><path fill="#10b981" d="M 7.503906 100.519531 C 7.503906 100.789062 7.453125 101.046875 7.351562 101.292969 C 7.246094 101.539062 7.101562 101.757812 6.914062 101.949219 C 6.722656 102.136719 6.503906 102.285156 6.257812 102.386719 C 6.011719 102.488281 5.753906 102.539062 5.484375 102.539062 C 5.21875 102.539062 4.960938 102.488281 4.714844 102.386719 C 4.464844 102.285156 4.246094 102.136719 4.058594 101.949219 C 3.867188 101.757812 3.722656 101.539062 3.621094 101.292969 C 3.519531 101.046875 3.46875 100.789062 3.46875 100.519531 C 3.46875 100.253906 3.519531 99.996094 3.621094 99.75 C 3.722656 99.5 3.867188 99.28125 4.058594 99.09375 C 4.246094 98.90625 4.464844 98.757812 4.714844 98.65625 C 4.960938 98.554688 5.21875 98.503906 5.484375 98.503906 C 5.753906 98.503906 6.011719 98.554688 6.257812 98.65625 C 6.503906 98.757812 6.722656 98.90625 6.914062 99.09375 C 7.101562 99.28125 7.246094 99.5 7.351562 99.75 C 7.453125 99.996094 7.503906 100.253906 7.503906 100.519531 Z M 7.503906 100.519531 " fill-opacity="1" fill-rule="nonzero"/><g clip-path="url(#f394e7e6dd)"><path fill="#10b981" d="M 62.765625 14.152344 C 62.765625 14.429688 62.738281 14.707031 62.683594 14.984375 C 62.628906 15.257812 62.550781 15.523438 62.441406 15.78125 C 62.335938 16.042969 62.203125 16.289062 62.046875 16.519531 C 61.894531 16.753906 61.714844 16.96875 61.519531 17.167969 C 61.320312 17.363281 61.105469 17.542969 60.871094 17.695312 C 60.640625 17.851562 60.394531 17.984375 60.132812 18.089844 C 59.875 18.199219 59.609375 18.277344 59.335938 18.332031 C 59.058594 18.386719 58.78125 18.414062 58.503906 18.414062 C 58.222656 18.414062 57.945312 18.386719 57.671875 18.332031 C 57.394531 18.277344 57.128906 18.199219 56.871094 18.089844 C 56.613281 17.984375 56.367188 17.851562 56.132812 17.695312 C 55.898438 17.542969 55.683594 17.363281 55.488281 17.167969 C 55.289062 16.96875 55.113281 16.753906 54.957031 16.519531 C 54.800781 16.289062 54.667969 16.042969 54.5625 15.78125 C 54.457031 15.523438 54.375 15.257812 54.320312 14.984375 C 54.265625 14.707031 54.238281 14.429688 54.238281 14.152344 C 54.238281 13.871094 54.265625 13.59375 54.320312 13.320312 C 54.375 13.042969 54.457031 12.777344 54.5625 12.519531 C 54.667969 12.261719 54.800781 12.015625 54.957031 11.78125 C 55.113281 11.546875 55.289062 11.332031 55.488281 11.136719 C 55.683594 10.9375 55.898438 10.761719 56.132812 10.605469 C 56.367188 10.449219 56.613281 10.316406 56.871094 10.210938 C 57.128906 10.105469 57.394531 10.023438 57.671875 9.96875 C 57.945312 9.914062 58.222656 9.886719 58.503906 9.886719 C 58.78125 9.886719 59.058594 9.914062 59.335938 9.96875 C 59.609375 10.023438 59.875 10.105469 60.132812 10.210938 C 60.394531 10.316406 60.640625 10.449219 60.871094 10.605469 C 61.105469 10.761719 61.320312 10.9375 61.519531 11.136719 C 61.714844 11.332031 61.894531 11.546875 62.046875 11.78125 C 62.203125 12.015625 62.335938 12.261719 62.441406 12.519531 C 62.550781 12.777344 62.628906 13.042969 62.683594 13.320312 C 62.738281 13.59375 62.765625 13.871094 62.765625 14.152344 Z M 62.765625 14.152344 " fill-opacity="1" fill-rule="nonzero"/></g><path fill="#10b981" d="M 18.265625 106.804688 C 18.265625 107.085938 18.238281 107.363281 18.183594 107.636719 C 18.128906 107.910156 18.046875 108.175781 17.9375 108.4375 C 17.832031 108.695312 17.699219 108.941406 17.546875 109.171875 C 17.390625 109.40625 17.210938 109.621094 17.015625 109.820312 C 16.816406 110.019531 16.601562 110.195312 16.367188 110.351562 C 16.136719 110.507812 15.890625 110.636719 15.632812 110.746094 C 15.371094 110.851562 15.105469 110.933594 14.832031 110.988281 C 14.554688 111.042969 14.277344 111.070312 14 111.070312 C 13.71875 111.070312 13.441406 111.042969 13.167969 110.988281 C 12.890625 110.933594 12.625 110.851562 12.367188 110.746094 C 12.109375 110.636719 11.863281 110.507812 11.628906 110.351562 C 11.398438 110.195312 11.179688 110.019531 10.984375 109.820312 C 10.785156 109.621094 10.609375 109.40625 10.453125 109.171875 C 10.296875 108.941406 10.164062 108.695312 10.058594 108.4375 C 9.953125 108.175781 9.871094 107.910156 9.816406 107.636719 C 9.761719 107.363281 9.734375 107.085938 9.734375 106.804688 C 9.734375 106.523438 9.761719 106.246094 9.816406 105.972656 C 9.871094 105.699219 9.953125 105.429688 10.058594 105.171875 C 10.164062 104.914062 10.296875 104.667969 10.453125 104.433594 C 10.609375 104.203125 10.785156 103.988281 10.984375 103.789062 C 11.179688 103.589844 11.398438 103.414062 11.628906 103.257812 C 11.863281 103.101562 12.109375 102.972656 12.367188 102.863281 C 12.625 102.757812 12.890625 102.675781 13.167969 102.621094 C 13.441406 102.566406 13.71875 102.539062 14 102.539062 C 14.277344 102.539062 14.554688 102.566406 14.832031 102.621094 C 15.105469 102.675781 15.371094 102.757812 15.632812 102.863281 C 15.890625 102.972656 16.136719 103.101562 16.367188 103.257812 C 16.601562 103.414062 16.816406 103.589844 17.015625 103.789062 C 17.210938 103.988281 17.390625 104.203125 17.546875 104.433594 C 17.699219 104.667969 17.832031 104.914062 17.9375 105.171875 C 18.046875 105.429688 18.128906 105.699219 18.183594 105.972656 C 18.238281 106.246094 18.265625 106.523438 18.265625 106.804688 Z M 18.265625 106.804688 " fill-opacity="1" fill-rule="nonzero"/></svg>
